# 3ds Max Wavefront OBJ Exporter v0.97b - (c)2007 guruware
# File Created: 18.02.2021 19:40:58

mtllib House.mtl

#
# object RadiokHouse
#

v  -10.0000 1.4946 -8.3283
v  -10.0000 0.0001 -8.3283
v  -10.0000 0.0001 8.3298
v  -10.0000 1.4946 8.3298
v  10.0000 1.4946 8.3298
v  10.0000 0.0001 8.3298
v  10.0000 0.0001 -8.3283
v  10.0000 1.4946 -8.3283
v  -10.0000 1.4946 9.9999
v  -10.0000 0.0001 9.9999
v  10.0000 0.0001 9.9999
v  10.0000 1.4946 9.9999
v  -8.7093 1.4946 9.9999
v  -8.7093 0.0001 9.9999
v  8.7094 0.0001 9.9999
v  8.7094 1.4946 9.9999
v  -10.0000 0.0001 -9.8743
v  -10.0000 1.4946 -9.8743
v  10.0000 1.4946 -9.8743
v  10.0000 0.0001 -9.8743
v  8.7094 1.4946 -9.8743
v  8.7094 0.0001 -9.8743
v  -8.7093 0.0001 -9.8743
v  -8.7093 1.4946 -9.8743
v  8.7094 1.4946 8.3298
v  -8.7093 1.4946 8.3298
v  8.7094 1.4946 -8.3283
v  -8.7093 1.4946 -8.3283
v  -3.7111 9.8300 9.5959
v  -7.5561 9.8300 9.5959
v  -7.5561 4.2328 9.5959
v  -3.7111 4.2328 9.5959
v  7.2623 9.4571 -6.4240
v  7.2623 9.4571 6.4255
v  7.2623 6.5858 6.4255
v  7.2623 6.5858 -6.4240
v  -6.8050 9.4571 -6.8813
v  6.8051 9.4571 -6.8813
v  6.8051 6.5858 -6.8813
v  -6.8050 6.5858 -6.8813
v  -7.2623 9.4571 6.4255
v  -7.2623 9.4571 -6.4240
v  -7.2623 6.5858 -6.4240
v  -7.2623 6.5858 6.4255
v  10.0515 10.9003 10.0045
v  -10.0515 10.9003 10.0045
v  -8.7093 10.9003 8.3298
v  8.7094 10.9003 8.3298
v  10.0515 10.9003 -10.0030
v  8.7094 10.9003 -8.3283
v  -10.0515 10.9003 -10.0030
v  -8.7093 10.9003 -8.3283
v  10.0515 11.4928 10.0045
v  -10.0515 11.4928 10.0045
v  10.0515 11.4928 -10.0030
v  -10.0515 11.4928 -10.0030
v  9.2620 12.3229 9.6508
v  -9.2620 12.3229 9.6508
v  9.2620 12.3229 -9.6508
v  -9.2620 12.3229 -9.6508
v  -3.7111 4.2328 8.3298
v  -7.5561 4.2328 8.3298
v  -3.7111 9.8300 8.3298
v  -7.5561 9.8300 8.3298
v  8.7094 6.5858 -6.4240
v  8.7094 6.5858 6.4255
v  8.7094 9.4571 -6.4240
v  8.7094 9.4571 6.4255
v  -6.8050 6.5858 -8.3283
v  6.8051 6.5858 -8.3283
v  -6.8050 9.4571 -8.3283
v  6.8051 9.4571 -8.3283
v  -8.7093 6.5858 6.4255
v  -8.7093 6.5858 -6.4240
v  -8.7093 9.4571 6.4255
v  -8.7093 9.4571 -6.4240
# 76 vertices

vn -1.0000 0.0000 -0.0000
vn 1.0000 0.0000 -0.0000
vn 0.0000 0.0000 1.0000
vn 0.0000 0.0000 -1.0000
vn 0.0000 1.0000 -0.0000
vn 0.0000 1.0000 0.0000
vn 0.0000 -1.0000 -0.0000
vn -0.0000 -1.0000 -0.0000
vn 0.0000 0.3920 0.9200
vn 0.7246 0.6892 -0.0000
vn 0.0000 0.3906 -0.9206
vn -0.7246 0.6891 -0.0000
# 12 vertex normals

vt 0.0000 5.0000 0.0000
vt 0.0000 0.0000 0.0000
vt 8.0000 0.0000 0.0000
vt 8.0000 5.0000 0.0000
vt 20.0000 0.0000 0.0000
vt 20.0000 5.0000 0.0000
vt 1.2907 5.0000 0.0000
vt 1.2907 0.0000 0.0000
vt 18.7093 0.0000 0.0000
vt 18.7093 5.0000 0.0000
vt 7.4837 4.6773 0.0000
vt 8.7744 0.0000 0.0000
vt 19.2256 0.0000 0.0000
vt 0.5163 0.3227 0.0000
vt 18.7093 0.3227 0.0000
vt 1.2907 4.6773 0.0000
# 16 texture coords

o RadiokHouse
g RadiokHouse
usemtl wire_088144225
s 2
f 1/1/1 2/2/1 3/3/1 
f 3/3/1 4/4/1 1/1/1 
f 5/1/2 6/2/2 7/3/2 
f 7/3/2 8/4/2 5/1/2 
f 9/1/1 4/1/1 3/2/1 
f 3/2/1 10/2/1 9/1/1 
f 11/5/2 6/5/2 5/6/2 
f 5/6/2 12/6/2 11/5/2 
s 4
f 13/7/3 14/8/3 15/9/3 
f 15/9/3 16/10/3 13/7/3 
s 2
f 17/5/1 2/5/1 1/6/1 
f 1/6/1 18/6/1 17/5/1 
f 19/1/2 8/1/2 7/2/2 
f 7/2/2 20/2/2 19/1/2 
s 4
f 21/7/4 22/8/4 23/9/4 
f 23/9/4 24/10/4 21/7/4 
s 1
f 16/10/5 25/10/6 26/7/6 
f 26/7/6 13/7/5 16/10/5 
f 27/11/5 21/12/5 24/13/5 
f 24/13/5 28/14/5 27/11/5 
s 4
f 16/10/3 15/9/3 11/5/3 
f 11/5/3 12/6/3 16/10/3 
f 14/8/3 13/7/3 9/1/3 
f 9/1/3 10/2/3 14/8/3 
f 24/10/4 23/9/4 17/5/4 
f 17/5/4 18/6/4 24/10/4 
f 22/8/4 21/7/4 19/1/4 
f 19/1/4 20/2/4 22/8/4 
s 1
f 13/7/5 26/7/6 4/1/6 
f 4/1/6 9/1/5 13/7/5 
f 25/10/6 16/10/5 12/6/5 
f 12/6/5 5/6/6 25/10/6 
f 28/14/5 24/13/5 18/5/5 
f 18/5/5 1/2/5 28/14/5 
f 21/12/5 27/11/5 8/4/5 
f 8/4/5 19/3/5 21/12/5 
f 26/15/6 28/14/5 1/2/5 
f 1/2/5 4/5/6 26/15/6 
f 27/11/5 25/16/6 5/1/6 
f 5/1/6 8/4/5 27/11/5 
f 29/16/3 30/15/3 31/15/3 
f 31/15/3 32/16/3 29/16/3 
f 33/11/2 34/16/2 35/16/2 
f 35/16/2 36/11/2 33/11/2 
f 37/14/4 38/11/4 39/11/4 
f 39/11/4 40/14/4 37/14/4 
f 41/15/1 42/14/1 43/14/1 
f 43/14/1 44/15/1 41/15/1 
f 45/16/7 46/15/8 47/15/8 
f 47/15/8 48/16/7 45/16/7 
f 49/11/8 45/16/7 48/16/7 
f 48/16/7 50/11/8 49/11/8 
f 51/14/7 49/11/8 50/11/8 
f 50/11/8 52/14/7 51/14/7 
f 46/15/8 51/14/7 52/14/7 
f 52/14/7 47/15/8 46/15/8 
s 2
f 53/16/3 54/15/3 46/15/3 
f 46/15/3 45/16/3 53/16/3 
s 4
f 55/11/2 53/16/2 45/16/2 
f 45/16/2 49/11/2 55/11/2 
s 2
f 56/14/4 55/11/4 49/11/4 
f 49/11/4 51/14/4 56/14/4 
s 4
f 54/15/1 56/14/1 51/14/1 
f 51/14/1 46/15/1 54/15/1 
s 16
f 57/16/9 58/15/9 54/15/9 
f 54/15/9 53/16/9 57/16/9 
s 1
f 59/11/10 57/16/10 53/16/10 
f 53/16/10 55/11/10 59/11/10 
s 16
f 60/14/11 59/11/11 55/11/11 
f 55/11/11 56/14/11 60/14/11 
s 1
f 58/15/12 60/14/12 56/14/12 
f 56/14/12 54/15/12 58/15/12 
s 2
f 61/16/3 62/15/3 26/15/3 
f 26/15/3 25/16/3 61/16/3 
f 63/16/3 61/16/3 25/16/3 
f 25/16/3 48/16/3 63/16/3 
f 64/15/3 63/16/3 48/16/3 
f 48/16/3 47/15/3 64/15/3 
f 62/15/3 64/15/3 47/15/3 
f 47/15/3 26/15/3 62/15/3 
s 4
f 32/16/7 31/15/7 62/15/7 
f 62/15/7 61/16/7 32/16/7 
s 8
f 29/16/2 32/16/2 61/16/2 
f 61/16/2 63/16/2 29/16/2 
s 4
f 30/15/5 29/16/5 63/16/5 
f 63/16/5 64/15/5 30/15/5 
s 8
f 31/15/1 30/15/1 64/15/1 
f 64/15/1 62/15/1 31/15/1 
s 4
f 65/11/2 66/16/2 25/16/2 
f 25/16/2 27/11/2 65/11/2 
f 67/11/2 65/11/2 27/11/2 
f 27/11/2 50/11/2 67/11/2 
f 68/16/2 67/11/2 50/11/2 
f 50/11/2 48/16/2 68/16/2 
f 66/16/2 68/16/2 48/16/2 
f 48/16/2 25/16/2 66/16/2 
s 2
f 69/14/4 70/11/4 27/11/4 
f 27/11/4 28/14/4 69/14/4 
f 71/14/4 69/14/4 28/14/4 
f 28/14/4 52/14/4 71/14/4 
f 72/11/4 71/14/4 52/14/4 
f 52/14/4 50/11/4 72/11/4 
f 70/11/4 72/11/4 50/11/4 
f 50/11/4 27/11/4 70/11/4 
s 4
f 73/15/1 74/14/1 28/14/1 
f 28/14/1 26/15/1 73/15/1 
f 75/15/1 73/15/1 26/15/1 
f 26/15/1 47/15/1 75/15/1 
f 76/14/1 75/15/1 47/15/1 
f 47/15/1 52/14/1 76/14/1 
f 74/14/1 76/14/1 52/14/1 
f 52/14/1 28/14/1 74/14/1 
s 2
f 36/11/5 35/16/5 66/16/5 
f 66/16/5 65/11/5 36/11/5 
s 8
f 33/11/3 36/11/3 65/11/3 
f 65/11/3 67/11/3 33/11/3 
s 2
f 34/16/7 33/11/7 67/11/7 
f 67/11/7 68/16/7 34/16/7 
s 8
f 35/16/4 34/16/4 68/16/4 
f 68/16/4 66/16/4 35/16/4 
s 4
f 40/14/5 39/11/5 70/11/5 
f 70/11/5 69/14/5 40/14/5 
s 8
f 37/14/2 40/14/2 69/14/2 
f 69/14/2 71/14/2 37/14/2 
s 4
f 38/11/7 37/14/7 71/14/7 
f 71/14/7 72/11/7 38/11/7 
s 8
f 39/11/1 38/11/1 72/11/1 
f 72/11/1 70/11/1 39/11/1 
s 2
f 44/15/6 43/14/6 74/14/6 
f 74/14/6 73/15/6 44/15/6 
s 8
f 41/15/4 44/15/4 73/15/4 
f 73/15/4 75/15/4 41/15/4 
s 2
f 42/14/7 41/15/7 75/15/7 
f 75/15/7 76/14/7 42/14/7 
s 8
f 43/14/3 42/14/3 76/14/3 
f 76/14/3 74/14/3 43/14/3 
s 2
f 60/14/5 58/15/5 57/16/5 
f 57/16/5 59/11/5 60/14/5 
# 138 faces

